PathFileType	4	(X/Y/Z)	Run_500 02
DataRate	CameraRate	NumFrames	NumMarkers	Units	OrigDataRate	OrigDataStartFrame	OrigNumFrames
100	100	7	42	mm	100	156	128
Frame#	Time	RASI			RPSI			RTH1			RTH2			RTH3			LTH1			LTH2			LTH3			RTB1			RTB2			RTB3			LTB1			LTB2			LTB3			RCAL			RTOE			RMT5			LCAL			LTOE			LMT5			LACR			RACR			CLAV			C7			RUA1			RUA2			RUA3			RLEL			LUA1			LUA2			LUA3			LLEL			LMEL			RFAsuperior			RFAradius			RFAulna			LFAsuperior			LFAradius			LPSI			RMEL			LFAulna			LASI			
		X1	Y1	Z1	X2	Y2	Z2	X3	Y3	Z3	X4	Y4	Z4	X5	Y5	Z5	X6	Y6	Z6	X7	Y7	Z7	X8	Y8	Z8	X9	Y9	Z9	X10	Y10	Z10	X11	Y11	Z11	X12	Y12	Z12	X13	Y13	Z13	X14	Y14	Z14	X15	Y15	Z15	X16	Y16	Z16	X17	Y17	Z17	X18	Y18	Z18	X19	Y19	Z19	X20	Y20	Z20	X21	Y21	Z21	X22	Y22	Z22	X23	Y23	Z23	X24	Y24	Z24	X25	Y25	Z25	X26	Y26	Z26	X27	Y27	Z27	X28	Y28	Z28	X29	Y29	Z29	X30	Y30	Z30	X31	Y31	Z31	X32	Y32	Z32	X33	Y33	Z33	X34	Y34	Z34	X35	Y35	Z35	X36	Y36	Z36	X37	Y37	Z37	X38	Y38	Z38	X39	Y39	Z39	X40	Y40	Z40	X41	Y41	Z41	X42	Y42	Z42	

140	1.94	1010.563311	1016.790805	-229.140124	858.590064	1081.146385	-312.290261	913.326405	897.864117	-177.946727	836.508702	771.558392	-209.331866	849.634466	612.351894	-229.076266	1000.845925	898.145846	-534.5009	1028.384272	750.256565	-505.248072	1157.803115	677.960304	-498.271863	800.9367569999999	363.687035	-320.949727	708.125524	362.438206	-255.512523	668.579803	227.930399	-350.033462	1173.10154	493.227082	-435.480454	1035.146805	513.391152	-489.995987	972.175788	405.088512	-443.670605	488.470938	180.816737	-354.943154	691.929458	65.699299	-401.708443	638.3390439999999	50.816676	-306.687493	784.986745	435.537153	-417.216171	914.08146	236.446885	-440.181112	859.372678	268.240694	-533.116449	987.771985	1518.782393	-512.240225	1029.150357	1481.894766	-191.496532	1074.943953	1456.588058	-326.878332	946.509178	1530.60612	-347.865445	935.509332	1379.183323	-116.92248	982.461086	1320.953745	-98.77970000000001	925.0153780000001	1243.688284	-49.679086	903.185746	1181.99577	-20.023425	869.140685	1456.456423	-560.009674	876.8745730000001	1386.458479	-611.6121910000001	789.3999260000001	1352.964664	-640.670762	752.538859	1299.455201	-668.918087	725.229548	1277.585524	-585.997555	1006.131762	1152.514137	-47.147373	1133.756169	1168.471622	-173.557472	1139.240084	1112.987075	-132.652458	794.288905	1223.322455	-668.013275	942.413263	1148.468446	-573.188404	867.6890059999999	1078.345455	-425.502865	891.687992	1155.8133	-106.954202	911.5047939999999	1098.441259	-615.010916	1033.850304	1003.835755	-455.710071	
141	1.95	1017.068552	1018.973234	-229.887894	863.818228	1085.511733	-308.883443	916.361773	902.616085	-177.447981	829.20189	781.025174	-207.542761	829.640674	622.994235	-227.806624	1004.957136	910.368688	-535.06142	1036.140384	761.7349850000001	-503.07176	1167.142756	693.892594	-497.717278	767.496675	375.20575	-316.363296	672.964937	377.511891	-253.582184	634.618084	240.574778	-346.294065	1197.183103	504.97719	-436.116282	1056.634065	508.573161	-486.866723	1008.016071	392.852927	-439.817402	456.998468	201.349576	-352.229885	645.3155	65.135398	-401.59032	591.083156	54.063133	-306.493956	819.339004	400.36966	-410.399555	971.2818150000001	218.633436	-435.407977	910.4021760000001	241.690855	-525.971079	985.785716	1526.319954	-511.467346	1033.788619	1489.218556	-193.403068	1076.212715	1463.654331	-329.500966	947.5653579999999	1536.529481	-346.786576	942.03878	1386.223836	-116.75429	990.542346	1328.305942	-100.134179	935.9874610000001	1249.707627	-50.392446	915.861069	1186.733249	-21.6814	865.261059	1469.679753	-556.399596	869.563001	1399.349819	-609.51341	780.458182	1369.106977	-637.173961	740.3808739999999	1317.70638	-664.5411	714.97941	1295.810892	-580.9780050000001	1019.56556	1165.091611	-52.648008	1140.964607	1191.987188	-182.594175	1152.595439	1136.843864	-142.181527	781.538898	1242.067908	-665.02702	931.031973	1165.952599	-573.826814	869.797769	1084.747913	-421.574685	902.395667	1161.679606	-108.769344	900.250386	1116.809874	-616.913831	1035.950177	1010.413014	-452.059282	
142	1.96	1024.236356	1020.961136	-230.65996	869.61862	1089.703582	-305.493065	920.697692	908.075334	-177.82133	822.806411	791.2051740000001	-206.46723	810.890299	635.419966	-227.273775	1008.773616	921.875825	-535.3516540000001	1042.748167	772.3819559999999	-499.807337	1173.921132	707.77783	-496.24352	737.589603	388.498986	-311.888059	641.241765	394.056846	-251.791172	605.166668	253.879939	-341.609224	1218.770218	515.648919	-437.418539	1077.547051	502.018545	-483.816878	1044.485266	380.996664	-435.587598	430.961734	223.240666	-348.849569	601.474871	65.960471	-400.960607	546.847425	59.320735	-305.27981	856.997189	365.207492	-402.55075	1030.006153	203.811481	-429.534559	963.927468	216.903947	-517.958486	984.337819	1533.317508	-510.412776	1037.924404	1496.390113	-195.523385	1077.255185	1470.171748	-332.05864	948.664983	1541.850281	-345.934908	947.961589	1393.088058	-117.068487	998.440973	1335.509875	-101.57537	946.517558	1255.927481	-50.782604	927.827345	1191.824261	-23.075156	862.318356	1482.153146	-552.812527	863.259937	1411.904275	-607.091125	772.270862	1385.560524	-632.721012	729.3663309999999	1336.022334	-659.6120529999999	706.038114	1313.647609	-575.288226	1031.268733	1177.322626	-57.777476	1146.186778	1214.783667	-190.736317	1163.6879	1160.854858	-150.276054	769.8574589999999	1260.696643	-661.533593	920.902728	1183.128633	-574.293909	872.438889	1091.010881	-417.584162	912.379113	1167.670796	-110.21483	889.907166	1134.82736	-618.424069	1038.579016	1016.833101	-448.334841	
143	1.97	1031.354724	1022.529776	-231.755284	875.562322	1093.710354	-301.998587	925.420756	914.1214199999999	-179.289505	817.530926	801.7970340000001	-206.717629	794.48428	648.544176	-227.558108	1011.594336	931.457732	-535.570245	1047.089354	780.845875	-495.764768	1177.68265	718.65747	-493.41888	712.154627	402.601857	-308.409199	614.545154	411.104439	-250.265872	579.8176549999999	267.937669	-336.984402	1237.773045	524.7796980000001	-437.858591	1098.307953	493.704313	-480.927874	1081.190998	369.784765	-430.874216	410.337806	247.264536	-344.365348	559.556169	69.318861	-399.481435	505.033604	67.652947	-303.26153	897.441006	330.809333	-394.638117	1089.668478	192.787232	-422.179186	1020.375374	194.782595	-509.659484	983.313411	1539.368559	-509.074607	1041.7292	1502.987496	-197.54158	1078.191279	1475.612512	-334.368192	949.803973	1546.18446	-345.233366	953.809268	1399.419175	-117.299931	1006.212402	1342.208906	-102.998234	956.287634	1262.071544	-50.762452	939.041603	1196.895733	-23.915457	860.077721	1493.171204	-549.159807	857.713847	1423.821269	-604.434623	764.803974	1401.843947	-627.418092	719.553777	1353.688809	-654.098716	698.234429	1330.349561	-569.105358	1041.382072	1188.949098	-62.299933	1149.6616	1235.891489	-197.885856	1172.49976	1183.9202	-157.574438	759.3592149999999	1278.583678	-657.648117	912.131219	1199.360903	-574.918636	875.317649	1096.937026	-413.99252	921.8438169999999	1173.230569	-111.023238	880.271087	1151.710315	-619.1597400000001	1041.44371	1022.919368	-445.010807	
144	1.98	1037.485719	1023.588277	-233.267635	881.06994	1097.504375	-298.515404	929.22716	920.095491	-181.015659	813.796857	812.0246959999999	-208.105691	781.800339	660.894853	-228.24307	1012.969758	938.278016	-535.9928619999999	1047.795087	785.935366	-491.696481	1178.22727	725.763676	-489.672428	691.443085	416.293826	-306.499597	593.603225	427.529434	-248.815199	557.377077	282.815386	-333.327575	1254.130793	531.977754	-436.086468	1119.261358	483.704092	-478.164918	1117.588143	359.353859	-425.637011	394.192676	273.457155	-338.768773	518.309352	76.37393299999999	-396.913423	464.588487	80.00547299999999	-301.020009	940.026011	297.810034	-387.602398	1148.849507	185.878202	-413.170852	1079.217306	175.820694	-500.742051	982.536622	1544.264888	-507.67626	1045.323631	1508.693407	-199.197917	1079.216422	1479.880147	-336.273225	950.940706	1549.29728	-344.549191	959.800522	1404.922084	-117.194504	1013.733878	1348.104992	-104.22871	965.0422150000001	1267.830994	-50.314221	949.41099	1201.646694	-24.027836	858.398596	1502.291868	-545.266397	852.657676	1434.747332	-601.528634	758.025047	1417.126192	-621.2737	710.877966	1369.824648	-647.917326	691.588843	1344.985976	-562.623245	1050.163297	1199.752523	-65.93617	1151.530049	1254.321502	-204.042837	1179.062843	1204.629948	-164.757923	750.039492	1294.996037	-653.450509	904.7529970000001	1214.065252	-575.879619	877.889085	1102.245526	-411.095325	930.462003	1178.002353	-110.935213	871.540673	1166.805665	-619.31205	1044.001836	1028.397594	-442.38719	
145	1.99	1041.97657	1024.350532	-234.900134	885.55128	1100.922726	-295.476164	931.624294	924.876879	-181.749765	812.042884	820.578391	-209.581307	773.890937	670.852547	-228.835676	1012.810984	942.037602	-536.86856	1044.828311	787.752404	-488.414623	1176.152116	729.023246	-486.27497	675.010207	428.349625	-306.247586	578.292273	442.37026	-247.060833	536.574597	298.446658	-330.879244	1267.721228	536.958755	-432.350645	1140.264011	472.222793	-475.498217	1152.946878	349.645966	-420.105227	380.408947	301.075479	-332.430457	477.206231	88.327012	-393.720059	425.071604	97.080721	-299.107905	983.9117230000001	266.701412	-381.815205	1205.645085	182.553656	-402.764954	1138.732931	159.846187	-490.140886	981.8779469999999	1548.008555	-506.53107	1048.790001	1513.249679	-200.4647	1080.493342	1483.165775	-337.772368	952.1150259999999	1551.313065	-343.838108	965.795336	1409.346602	-116.79357	1020.769878	1352.957268	-105.092632	972.75658	1272.869888	-49.472779	958.743975	1205.892611	-23.376626	857.233334	1509.370242	-541.117879	848.056525	1444.241392	-598.384605	752.0161900000001	1430.471911	-614.494538	703.3278769999999	1383.585469	-641.186787	686.2717740000001	1356.805543	-556.000947	1057.700704	1209.133926	-68.580065	1151.940386	1269.208096	-209.228099	1183.485798	1221.51064	-171.238489	741.8543539999999	1309.143636	-649.017015	898.716149	1226.736418	-577.135363	879.81695	1106.643611	-408.924054	937.919594	1181.920133	-109.907939	864.057962	1179.565874	-619.307743	1045.917561	1032.968346	-440.491487	
146	2	1044.910637	1025.259468	-236.153032	888.668605	1103.706908	-293.334077	933.528018	927.592588	-181.114192	812.5684230000001	826.072765	-210.030379	771.161582	677.062156	-229.155797	1011.333019	943.060912	-538.239156	1040.040213	787.769696	-486.239615	1172.651045	729.095355	-484.256523	661.996126	438.114163	-307.293776	567.9380200000001	455.320174	-244.774296	516.531967	315.036485	-329.192471	1278.263172	539.490899	-428.27428	1160.451073	459.503265	-472.907045	1186.3414	340.405193	-414.691592	366.267242	329.439997	-325.59334	437.165845	106.387693	-391.069387	387.466466	119.134875	-297.684051	1028.041012	237.890069	-376.937601	1258.396554	181.619574	-391.666197	1196.655843	146.311268	-477.384156	981.358549	1550.748161	-505.821921	1052.193733	1516.473419	-201.501098	1082.0625	1485.687635	-339.000262	953.48565	1552.699056	-343.197057	971.470521	1412.532593	-116.230075	1027.022876	1356.644396	-105.495386	979.545285	1276.931434	-48.316194	966.792415	1209.568695	-22.027086	856.533446	1514.552106	-537.02853	844.17483	1451.815568	-595.132529	747.018907	1441.107608	-607.626266	697.044346	1394.346941	-634.233473	682.437228	1365.505097	-549.351613	1063.940756	1216.321209	-70.349991	1151.288488	1279.827636	-213.483972	1186.058053	1233.388192	-175.247376	734.881695	1320.310261	-644.433385	893.984433	1236.913744	-578.473602	881.05634	1109.895123	-407.333815	944.049764	1185.120498	-108.091082	858.116662	1189.576189	-619.398062	1047.145001	1036.389372	-439.174923	
